<svg width="35" height="35" viewBox="0 0 35 35" fill="none" xmlns="http://www.w3.org/2000/svg">
<g clip-path="url(#clip0_16_1042)">
<path fill-rule="evenodd" clip-rule="evenodd" d="M17.6455 4.34814C24.8894 4.34814 30.7705 10.2292 30.7705 17.4731C30.7705 24.7171 24.8894 30.5981 17.6455 30.5981C10.4016 30.5981 4.52051 24.7171 4.52051 17.4731C4.52051 10.2292 10.4016 4.34814 17.6455 4.34814ZM9.10551 10.6181C7.59668 12.4955 6.69324 14.8793 6.69324 17.4731C6.69324 23.5178 11.6009 28.4254 17.6455 28.4254C20.2393 28.4254 22.6232 27.522 24.5 26.0131L9.10551 10.6181ZM26.0849 24.4513C27.6544 22.5558 28.5983 20.1238 28.5983 17.4731C28.5983 11.428 23.6907 6.52033 17.6455 6.52033C14.9948 6.52033 12.5629 7.46424 10.6674 9.03377L26.0849 24.4513Z" fill="#C21500"/>
</g>
<defs>
<clipPath id="clip0_16_1042">
<rect width="35" height="35" fill="white"/>
</clipPath>
</defs>
</svg>
