<svg width="800" height="800" viewBox="0 0 800 800" fill="none" xmlns="http://www.w3.org/2000/svg">
<path d="M109.9 174.46C117.414 142.426 142.426 117.414 174.46 109.9C202.221 103.388 231.112 103.388 258.873 109.9C290.907 117.414 315.919 142.426 323.433 174.46C329.945 202.221 329.945 231.112 323.433 258.873C315.919 290.907 290.907 315.919 258.873 323.433C231.112 329.945 202.221 329.945 174.46 323.433C142.426 315.919 117.414 290.907 109.9 258.873C103.389 231.112 103.389 202.221 109.9 174.46Z" stroke="#D9D9D9" stroke-width="50"/>
<path d="M109.9 541.127C117.414 509.093 142.426 484.08 174.46 476.567C202.221 470.057 231.112 470.057 258.873 476.567C290.907 484.08 315.919 509.093 323.433 541.127C329.945 568.887 329.945 597.78 323.433 625.54C315.919 657.573 290.907 682.587 258.873 690.1C231.112 696.61 202.221 696.61 174.46 690.1C142.426 682.587 117.414 657.573 109.9 625.54C103.389 597.78 103.389 568.887 109.9 541.127Z" stroke="#FF0000" stroke-width="50"/>
<path d="M476.567 174.46C484.08 142.426 509.093 117.414 541.127 109.9C568.887 103.388 597.78 103.388 625.54 109.9C657.573 117.414 682.587 142.426 690.1 174.46C696.61 202.221 696.61 231.112 690.1 258.873C682.587 290.907 657.573 315.919 625.54 323.433C597.78 329.945 568.887 329.945 541.127 323.433C509.093 315.919 484.08 290.907 476.567 258.873C470.057 231.112 470.057 202.221 476.567 174.46Z" stroke="#D9D9D9" stroke-width="50"/>
<path d="M476.567 541.127C484.08 509.093 509.093 484.08 541.127 476.567C568.887 470.057 597.78 470.057 625.54 476.567C657.573 484.08 682.587 509.093 690.1 541.127C696.61 568.887 696.61 597.78 690.1 625.54C682.587 657.573 657.573 682.587 625.54 690.1C597.78 696.61 568.887 696.61 541.127 690.1C509.093 682.587 484.08 657.573 476.567 625.54C470.057 597.78 470.057 568.887 476.567 541.127Z" stroke="#D9D9D9" stroke-width="50"/>
</svg>
