<!DOCTYPE svg PUBLIC "-//W3C//DTD SVG 1.1//EN" "http://www.w3.org/Graphics/SVG/1.1/DTD/svg11.dtd">
<!-- Uploaded to: SVG Repo, www.svgrepo.com, Transformed by: SVG Repo Mixer Tools -->
<svg width="800px" height="800px" viewBox="0 0 1024 1024" class="icon" version="1.1" xmlns="http://www.w3.org/2000/svg" fill="#000000">
<g id="SVGRepo_bgCarrier" stroke-width="0"/>
<g id="SVGRepo_tracerCarrier" stroke-linecap="round" stroke-linejoin="round"/>
<g id="SVGRepo_iconCarrier">
<path d="M512 32C248 32 32 248 32 512s216 480 480 480 480-216 480-480S776 32 512 32z" fill="#FFFFFF"/>
<path d="M512 0C228.8 0 0 228.8 0 512s228.8 512 512 512 512-228.8 512-512S795.2 0 512 0z m0 992C248 992 32 776 32 512S248 32 512 32s480 216 480 480-216 480-480 480z" fill=""/>
<path d="M512 512m-392 0a392 392 0 1 0 784 0 392 392 0 1 0-784 0Z" fill="#C21500"/>
<path d="M784 496H528V240h-32v256H240v32h256v256h32V528h256z" fill="#1A1718"/>
</g>
</svg>