<?xml version="1.0" ?><!-- Uploaded to: SVG Repo, www.svgrepo.com, Generator: SVG Repo Mixer Tools -->
<svg width="800px" height="800px" viewBox="0 0 64 64" data-name="Layer 1" id="Layer_1" xmlns="http://www.w3.org/2000/svg"><defs><style>.cls-1{fill:#0074ff;}.cls-2{fill:#ffb300;}</style></defs><title/><path class="cls-1" d="M47.82,57.73H14a2,2,0,0,1-2-2V13a2,2,0,0,1,2-2h7.56a2,2,0,0,1,2,2v4.23H38.25V13a2,2,0,0,1,2-2h7.57a2,2,0,0,1,2,2V38a2,2,0,0,1-4,0V15H42.25v4.23a2,2,0,0,1-2,2H21.57a2,2,0,0,1-2-2V15H16V53.73H45.82V51.18a2,2,0,0,1,4,0v4.55A2,2,0,0,1,47.82,57.73Z"/><path class="cls-1" d="M40.25,21.24H21.57a2,2,0,0,1-2-2v-11a2,2,0,0,1,2-2H40.25a2,2,0,0,1,2,2v11A2,2,0,0,1,40.25,21.24Zm-16.68-4H38.25v-7H23.57Z"/><path class="cls-2" d="M42,51.59A2,2,0,0,1,40.54,51l-5-5a2,2,0,0,1,0-2.83l5-5a2,2,0,0,1,2.83,2.83l-3.62,3.62,3.62,3.62A2,2,0,0,1,42,51.59Z"/><path class="cls-2" d="M56,46.56H36.92a2,2,0,0,1,0-4H56a2,2,0,1,1,0,4Z"/></svg>